# xmcd CD database file
#
# Track frame offsets:
#	150
#	8600
#	21176
#	34190
#	47759
#	75748
#	92482
#	104300
#	118498
#	140881
#	151213
#	168304
#	188123
#	208590
#	228741
#	246914
#	263239
#	277502
#	300674
#
# Disc length: 4213 seconds
#
# Revision: 0
# Processed by: cddbd v1.5.1PL0 Copyright (c) Steve Scherf et al.
# Submitted via: CDex 1.51
#
DISCID=fc107313
DTITLE=憂歌団 - SHOWBOAT YEARS (DISC2)
DYEAR=2004
DGENRE=Blues
TTITLE0=マデイ・ジャンプス・ワン
TTITLE1=イフ・アイ・デイドウント・ラブ・ユー
TTITLE2=俺の村では俺も人気者
TTITLE3=10ドルの恋
TTITLE4=シカゴバウンド
TTITLE5=ローリン・アンド・タンブリン
TTITLE6=嫌んなった
TTITLE7=ちょいとそこ行くネエちゃん
TTITLE8=ALL OF ME
TTITLE9=ドッポ節
TTITLE10=はんか街のはんぱ女
TTITLE11=SLOW TRAIN BLUES
TTITLE12=当れ！宝くじ
TTITLE13=お金持ちのオッサン
TTITLE14=王様
TTITLE15=パチンコ〜ランランブルース
TTITLE16=おそうじオバちゃん
TTITLE17=君といつまでも
TTITLE18=憂歌団のテーマ
EXTD=YEAR: 2004
EXTT0=
EXTT1=
EXTT2=
EXTT3=
EXTT4=
EXTT5=
EXTT6=
EXTT7=
EXTT8=
EXTT9=
EXTT10=
EXTT11=
EXTT12=
EXTT13=
EXTT14=
EXTT15=
EXTT16=
EXTT17=
EXTT18=
PLAYORDER=
